<svg width="16" height="16" viewBox="0 0 16 16" fill="none" xmlns="http://www.w3.org/2000/svg">
<g clip-path="url(#clip0_59_689)">
<path d="M13.0047 0H3C1.34315 0 0 1.34315 0 3V13C0 14.6569 1.34315 16 3 16H13.0047C14.6615 16 16.0047 14.6569 16.0047 13V3C16.0047 1.34315 14.6615 0 13.0047 0Z" fill="#FF3D00"/>
<path d="M4.99689 9C5.54746 9 5.99378 8.55228 5.99378 8C5.99378 7.44772 5.54746 7 4.99689 7C4.44632 7 4 7.44772 4 8C4 8.55228 4.44632 9 4.99689 9Z" fill="white"/>
<path d="M10.9827 12C11.5333 12 11.9796 11.5523 11.9796 11C11.9796 10.4477 11.5333 10 10.9827 10C10.4322 10 9.98584 10.4477 9.98584 11C9.98584 11.5523 10.4322 12 10.9827 12Z" fill="white"/>
<path d="M10.9827 6C11.5333 6 11.9796 5.55228 11.9796 5C11.9796 4.44772 11.5333 4 10.9827 4C10.4322 4 9.98584 4.44772 9.98584 5C9.98584 5.55228 10.4322 6 10.9827 6Z" fill="white"/>
<path d="M11.0076 8.9751C11.5582 8.9751 12.0045 8.52738 12.0045 7.9751C12.0045 7.42281 11.5582 6.9751 11.0076 6.9751C10.4571 6.9751 10.0107 7.42281 10.0107 7.9751C10.0107 8.52738 10.4571 8.9751 11.0076 8.9751Z" fill="white"/>
<path d="M8.49054 9C9.04111 9 9.48743 8.55228 9.48743 8C9.48743 7.44772 9.04111 7 8.49054 7C7.93998 7 7.49365 7.44772 7.49365 8C7.49365 8.55228 7.93998 9 8.49054 9Z" fill="white"/>
</g>
<defs>
<clipPath id="clip0_59_689">
<rect width="16" height="16" fill="white"/>
</clipPath>
</defs>
</svg>
